HIERARCHY
ROOT Bip001_Pelvis
{
  OFFSET 34.4345 95.6767 -26.8758
  CHANNELS 6 Xposition Yposition Zposition Zrotation Xrotation Yrotation
  JOINT Bip001_Spine
  {
    OFFSET 1.4188e-005 10.2191 -0.0116013
    CHANNELS 3 Zrotation Xrotation Yrotation
    JOINT Bip001_L_Thigh
    {
      OFFSET 11.0458 -10.2192 0.0116197
      CHANNELS 3 Zrotation Xrotation Yrotation
      JOINT Bip001_L_Calf
      {
        OFFSET -0.707118 -44.0221 0.360014
        CHANNELS 3 Zrotation Xrotation Yrotation
        JOINT Bip001_L_Foot
        {
          OFFSET -0.651902 -40.5938 -3.56146
          CHANNELS 3 Zrotation Xrotation Yrotation
          JOINT Bip001_L_Toe0
          {
            OFFSET 0.0530839 -10.2181 13.1504
            CHANNELS 3 Zrotation Xrotation Yrotation
            End Site
            {
              OFFSET -1.02532e-005 0 7.55606
            }
          }
        }
      }
    }
    JOINT Bip001_R_Thigh
    {
      OFFSET -11.0458 -10.2191 0.0115893
      CHANNELS 3 Zrotation Xrotation Yrotation
      JOINT Bip001_R_Calf
      {
        OFFSET 0.706994 -44.0221 0.35984
        CHANNELS 3 Zrotation Xrotation Yrotation
        JOINT Bip001_R_Foot
        {
          OFFSET 0.651786 -40.5938 -3.5613
          CHANNELS 3 Zrotation Xrotation Yrotation
          JOINT Bip001_R_Toe0
          {
            OFFSET -0.0531479 -10.2181 13.1504
            CHANNELS 3 Zrotation Xrotation Yrotation
            End Site
            {
              OFFSET -1.02894e-005 0 7.55606
            }
          }
        }
      }
    }
    JOINT Bip001_Spine1
    {
      OFFSET 1.87041e-005 14.5736 1.08638
      CHANNELS 3 Zrotation Xrotation Yrotation
      JOINT Bip001_Spine2
      {
        OFFSET 2.24614e-005 14.5058 -1.69078
        CHANNELS 3 Zrotation Xrotation Yrotation
        JOINT Bip001_Neck
        {
          OFFSET 2.20278e-005 15.3945 -0.489414
          CHANNELS 3 Zrotation Xrotation Yrotation
          JOINT Bip001_L_Clavicle
          {
            OFFSET 6.06036 -0.000579998 0.00836775
            CHANNELS 3 Zrotation Xrotation Yrotation
            JOINT Bip001_L_UpperArm
            {
              OFFSET 11.5509 -0.0600302 0.00193952
              CHANNELS 3 Zrotation Xrotation Yrotation
              JOINT Bip001_L_Forearm
              {
                OFFSET 25.9523 0.0806089 -2.15551
                CHANNELS 3 Zrotation Xrotation Yrotation
                JOINT Bip001_L_Hand
                {
                  OFFSET 32.2475 0.153767 1.63968
                  CHANNELS 3 Zrotation Xrotation Yrotation
                  JOINT Bip001_L_Finger0
                  {
                    OFFSET 6.04639 -2.20976 5.90322
                    CHANNELS 3 Zrotation Xrotation Yrotation
                    End Site
                    {
                      OFFSET 4.22375 -1.43895 0.606485
                    }
                  }
                  JOINT Bip001_L_Finger1
                  {
                    OFFSET 11.0826 -0.704819 -0.198153
                    CHANNELS 3 Zrotation Xrotation Yrotation
                    End Site
                    {
                      OFFSET 6.20027 -0.397518 -0.0787166
                    }
                  }
                }
              }
            }
          }
          JOINT Bip001_R_Clavicle
          {
            OFFSET -6.06037 -0.000563197 0.00835105
            CHANNELS 3 Zrotation Xrotation Yrotation
            JOINT Bip001_R_UpperArm
            {
              OFFSET -11.5509 -0.0599978 0.00190698
              CHANNELS 3 Zrotation Xrotation Yrotation
              JOINT Bip001_R_Forearm
              {
                OFFSET -25.9523 0.0806822 -2.15589
                CHANNELS 3 Zrotation Xrotation Yrotation
                JOINT Bip001_R_Hand
                {
                  OFFSET -32.2475 0.153859 1.63989
                  CHANNELS 3 Zrotation Xrotation Yrotation
                  JOINT Bip001_R_Finger0
                  {
                    OFFSET -6.04641 -2.20976 5.90317
                    CHANNELS 3 Zrotation Xrotation Yrotation
                    End Site
                    {
                      OFFSET -4.22376 -1.43895 0.60647
                    }
                  }
                  JOINT Bip001_R_Finger1
                  {
                    OFFSET -11.0826 -0.704794 -0.198182
                    CHANNELS 3 Zrotation Xrotation Yrotation
                    End Site
                    {
                      OFFSET -6.20028 -0.397504 -0.0787333
                    }
                  }
                }
              }
            }
          }
          JOINT Bip001_Head
          {
            OFFSET 1.09673e-005 11.2744 2.05948
            CHANNELS 3 Zrotation Xrotation Yrotation
            End Site
            {
              OFFSET 2.89576e-005 20.8808 -2.77728e-005
            }
          }
        }
      }
    }
  }
}
MOTION
Frames:	10
Frame Time:	0.04
32.7192 95.2201 -29.1802 -3.87224 -1.08445 18.6169 -0.634514 0.768561 1.45952 12.6354 -11.0687 7.30273 -0.642462 20.0411 -15.9901 0.89677 -9.17641 0.058096 0.831143 -3.84582 -0.830914 2.26474 3.29395 -4.15723 1.00752 5.8259 -1.0151 -10.9794 -2.66722 -15.8003 3.46169 -11.0575 3.31833 -1.28862 1.52034 2.92781 -1.28863 1.51997 2.92782 6.90918 -14.995 -5.54108 -29.0908 14.2658 1.95182 -44.276 39.3438 5.40235 24.3128 1.45532 -54.0936 4.63323 2.0369 -6.53154 -9.54166e-015 4.77083e-015 6.36111e-015 -1.27222e-014 7.95139e-015 6.36111e-015 -6.97051 16.2539 22.5569 37.6629 -50.0034 44.3786 -45.2335 -2.1113 60.2468 -7.76046 -2.14377 2.63343 3.18055e-015 3.18055e-015 7.95139e-016 3.18055e-015 0 7.95139e-016 -5.47616 -3.88123 -3.0887 
32.7585 95.4773 -29.0848 -3.68868 -0.871394 19.9426 -0.744989 0.821725 1.97527 12.6157 -10.8066 8.31778 -0.688888 18.3184 -17.9506 -1.01077 -9.28947 0.00590144 0.388509 -2.53954 -0.511287 2.52119 4.62278 -4.71543 0.808067 2.91915 -1.32258 -10.6506 -1.26381 -16.3813 3.3402 -10.7549 3.26338 -1.5181 1.61722 3.96164 -1.5181 1.61722 3.96165 6.33734 -16.9026 -7.62871 -29.9208 15.2195 3.8782 -43.3028 38.9539 6.61742 23.9906 0.976875 -54.84 5.42765 1.61201 -5.89227 6.36111e-015 -1.59028e-015 3.18055e-015 3.18055e-015 -1.59028e-015 3.18055e-015 -11.928 16.5102 27.8564 23.0008 -39.7804 39.7771 -39.8911 -6.11767 43.5025 -6.66273 -0.74828 2.58562 -3.18055e-015 0 -0 -6.36111e-015 -3.18056e-015 -1.59028e-015 -5.47815 -1.84201 -5.11192 
32.7264 95.7018 -29.1574 -3.96391 -0.458822 20.7664 -0.759816 0.927105 2.58031 12.573 -11.1178 6.45305 -1.16925 16.8346 -16.9787 -1.96174 -8.84158 -0.0100903 0.0978217 -1.77326 -0.452721 2.91627 4.41182 -5.50951 0.554518 2.0096 -1.64869 -10.321 -0.831101 -16.6216 3.31142 -10.6331 3.17408 -1.55454 1.8195 5.17364 -1.55283 1.81921 5.17364 6.38258 -20.0454 -9.90662 -32.0725 16.8296 6.89622 -41.6192 39.8281 6.04725 23.2651 0.0266382 -53.7333 5.68276 2.11356 -5.80726 3.18055e-015 -3.18055e-015 -3.18055e-015 -5.29669e-031 -3.18056e-015 -9.54166e-015 -19.1338 16.5026 34.2385 12.5433 -33.7969 38.4631 -35.2326 -7.31505 27.3985 -4.47168 -2.4493 4.27817 -8.82781e-032 -3.18055e-015 -1.59028e-015 3.18055e-015 -3.18056e-015 -1.59028e-015 -6.06497 0.750339 -7.07856 
32.6025 95.8811 -29.3489 -4.32235 0.218421 20.6205 -0.743921 0.969915 3.18821 12.7174 -11.4439 4 -2.16338 15.3046 -14.7338 -2.31883 -8.03119 0.0106982 -0.102829 -1.69395 -0.208094 3.09069 3.49853 -5.71386 0.384385 1.77187 -1.88259 -10.0411 -0.646565 -16.6346 3.23306 -10.3891 3.06698 -1.54092 1.89658 6.39 -1.54861 1.89731 6.39007 6.65705 -22.2104 -12.2372 -34.6393 17.2838 9.55337 -39.9579 40.1142 6.19083 23.2525 -0.345134 -53.3294 5.18183 1.88256 -6.12897 3.18055e-015 -1.59028e-015 -3.18055e-015 9.54166e-015 -6.36111e-015 -3.18055e-015 -24.3891 15.4845 40.6931 13.5529 -39.3399 43.0097 -53.1441 14.8707 23.6154 10.0482 -6.19375 2.25978 3.18055e-015 1.59028e-015 7.95139e-016 3.18055e-015 3.18056e-015 -0 -6.73639 3.10249 -8.92062 
32.5578 95.9221 -29.6006 -4.42101 0.896648 20.8153 -0.5948 1.02563 3.44348 12.2412 -12.0026 2.90773 -2.43318 14.3558 -13.888 -1.75257 -7.04727 0.0314458 0.280153 -2.23424 -0.521081 2.72783 2.62089 -6.84925 0.327667 1.82237 -1.77544 -9.81617 -0.838022 -16.1529 3.1838 -10.1984 2.94191 -1.25505 2.01382 6.89607 -1.25333 2.01417 6.89972 9.02174 -22.4979 -13.8683 -37.5085 15.5813 11.6069 -39.8366 41.004 5.81751 22.0963 -0.745505 -52.435 6.37749 1.76912 -6.0234 -6.36111e-015 -1.11319e-014 9.54166e-015 -3.18055e-015 -1.43125e-014 3.18055e-015 -29.6173 12.7347 41.3802 25.3958 -52.8482 57.4029 -58.1954 22.4725 39.5441 15.0542 -11.5306 -2.76064 0 0 -1.59028e-015 3.18055e-015 0 -0 -9.3105 3.27527 -9.567 
32.5857 95.9801 -29.7984 -4.54035 1.11557 20.9267 -0.423678 0.967635 3.48371 12.0093 -12.1141 3.04653 -2.37076 13.9179 -13.8596 -2.3069 -7.06926 0.0287882 0.16497 -1.88999 -0.358738 2.59851 2.46076 -7.45087 0.14855 1.55145 -1.82032 -9.49265 -0.881967 -15.7756 3.08496 -9.96094 2.92106 -0.886784 1.9079 6.98792 -0.885835 1.90767 6.97907 12.7605 -21.0726 -14.846 -39.67 12.6965 11.6168 -41.1947 41.5309 6.89778 21.7926 0.114879 -51.7946 5.97572 1.45192 -6.48443 -6.36111e-015 6.36111e-015 9.54166e-015 -9.54166e-015 9.54167e-015 1.27222e-014 -39.3028 6.38537 34.0388 21.8866 -48.5586 58.5135 -53.3392 16.7999 33.8043 7.6919 -2.72962 8.82724 -1.59028e-015 0 -3.97569e-016 -1.59028e-015 0 4.77083e-015 -12.2308 1.90746 -9.45856 
32.5597 96.0454 -29.8568 -4.60084 1.17419 21.2511 -0.407628 0.709444 3.14635 12.0973 -11.5489 3.15531 -2.64181 12.9451 -14.4444 -1.35859 -5.97388 0.0465169 0.316753 -2.73428 -0.353425 2.87226 2.82115 -7.44397 -0.317894 1.12931 -2.05067 -9.07719 -0.867575 -15.5774 2.95182 -9.80791 3.14427 -0.853674 1.39542 6.29828 -0.853681 1.39543 6.29836 16.9905 -17.3869 -15.3841 -41.1145 8.17795 10.2568 -43.408 42.2281 9.55857 22.0082 1.50226 -50.5536 5.56612 1.53813 -7.08655 3.18055e-015 0 -3.18055e-015 3.18055e-015 -3.18056e-015 -3.18055e-015 -45.8897 0.346804 27.3879 14.4091 -41.3391 57.1399 -48.8804 3.84688 27.1857 2.21114 1.25857 12.9812 3.97569e-016 0 5.01931e-015 -1.19271e-015 -3.18056e-015 3.37934e-015 -14.1228 -0.0571755 -8.90203 
32.7489 96.0642 -29.8237 -3.64138 0.919477 20.2559 -0.43208 0.821741 2.84562 11.2211 -9.95177 4.19642 -2.38064 11.5885 -14.537 -1.01199 -5.34121 0.0479632 0.480033 -3.0652 -0.490184 1.85516 3.4864 -7.12105 -0.252994 0.897402 -2.03035 -8.77943 -1.14965 -14.7018 2.93243 -9.69241 3.03955 -0.894528 1.62139 5.69594 -0.898821 1.6214 5.69654 17.1343 -16.9772 -15.038 -41.1139 7.7754 10.7441 -43.8218 43.0516 8.95386 22.7909 4.36003 -47.7735 4.65887 1.15992 -8.04543 1.41245e-030 -1.27222e-014 6.36111e-015 -3.18055e-015 -9.54167e-015 3.18055e-015 -44.9377 0.694087 27.2164 17.6229 -42.7255 66.573 -48.6375 -1.06014 32.0361 6.59014 0.954633 14.7136 -7.95139e-016 -3.18055e-015 1.59028e-015 -7.95139e-016 -3.18056e-015 1.19271e-015 -13.9371 1.17166 -8.41777 
32.7554 95.993 -30.0071 -3.40045 0.777314 18.2812 -0.227211 1.02369 2.70566 10.6814 -9.44717 4.1222 -2.13513 11.5388 -12.7898 0.528508 -4.76011 0.0424701 1.1453 -4.15558 -0.99285 1.09398 3.11584 -6.25656 -0.0161723 1.18525 -1.74175 -8.81343 -1.39535 -13.8775 2.91862 -9.68454 3.08727 -0.502649 2.03547 5.41665 -0.502645 2.03548 5.41665 14.5669 -17.6375 -14.2577 -39.7013 9.26269 11.3509 -42.7389 43.5046 6.72913 23.6458 6.76986 -46.2751 3.67743 1.67173 -8.33468 -6.36111e-015 0 3.18055e-015 -6.36111e-015 0 3.18055e-015 -42.1377 2.8011 27.9809 38.5765 -42.0119 86.8914 -57.6915 5.64583 47.6441 12.7382 0.244357 15.559 -0 0 5.1684e-015 1.98626e-031 -3.18056e-015 3.57812e-015 -12.1056 2.43115 -8.33321 
32.7526 95.8891 -30.2325 -3.18254 0.377377 16.3773 -0.0248105 1.104 2.53763 10.1644 -8.72793 4.59811 -1.7742 11.6337 -12.0001 3.02481 -3.62411 -0.0165733 2.07585 -6.07037 -1.55234 0.35752 2.85949 -5.90828 0.351377 1.85494 -1.44008 -8.93789 -1.68198 -12.6712 2.93878 -9.79614 3.17102 -0.0986092 2.20582 5.07713 -0.0986087 2.20584 5.07713 13.92 -16.735 -13.7122 -38.9831 8.95988 10.8968 -43.5126 44.6948 5.92717 23.6634 7.23607 -44.4043 3.58927 1.63035 -8.46936 -0 -6.36111e-015 -0 -3.18055e-015 -3.18056e-015 -0 -39.4107 3.458 28.2148 50.2741 -33.7691 95.8357 -70.2906 6.3216 64.3906 22.6798 -6.23826 7.36346 1.59028e-015 -6.36111e-015 -4.17448e-015 7.95139e-016 0 -2.78299e-015 -11.7263 2.41718 -7.96604 
